<svg xmlns="http://www.w3.org/2000/svg" style="display:none">
  <!-- Acharkhastory Craft Icons Sprite -->

  <!-- Handloom Weaving -->
  <symbol id="acs-craft-handloom" viewBox="0 0 48 48" fill="none" stroke="currentColor" stroke-width="1.5" stroke-linecap="round" stroke-linejoin="round">
    <rect x="6" y="10" width="36" height="28" rx="2"/>
    <line x1="6" y1="18" x2="42" y2="18"/>
    <line x1="6" y1="26" x2="42" y2="26"/>
    <line x1="6" y1="34" x2="42" y2="34"/>
    <line x1="14" y1="10" x2="14" y2="38"/>
    <line x1="22" y1="10" x2="22" y2="38"/>
    <line x1="30" y1="10" x2="30" y2="38"/>
    <line x1="38" y1="10" x2="38" y2="38"/>
    <line x1="2" y1="18" x2="6" y2="18"/>
    <line x1="42" y1="18" x2="46" y2="18"/>
  </symbol>

  <!-- Block Printing Stamp -->
  <symbol id="acs-craft-blockprint" viewBox="0 0 48 48" fill="none" stroke="currentColor" stroke-width="1.5" stroke-linecap="round" stroke-linejoin="round">
    <rect x="10" y="6" width="28" height="18" rx="2"/>
    <path d="M16 24v8M24 24v12M32 24v8"/>
    <rect x="8" y="36" width="32" height="6" rx="1"/>
    <circle cx="18" cy="14" r="2.5"/>
    <circle cx="30" cy="14" r="2.5"/>
    <path d="M22 10l2 3 2-3"/>
  </symbol>

  <!-- Embroidery Needle & Thread -->
  <symbol id="acs-craft-embroidery" viewBox="0 0 48 48" fill="none" stroke="currentColor" stroke-width="1.5" stroke-linecap="round" stroke-linejoin="round">
    <path d="M8 40L36 12"/>
    <path d="M36 12l2-4c.5-1 1.5-2 1-3s-2-.5-3 1l-4 2"/>
    <circle cx="38" cy="6" r="1.5" fill="currentColor"/>
    <path d="M8 40c-1 1-2 2.5-.5 3.5s2.5-.5 3.5-1.5"/>
    <path d="M14 28c2 1 4-1 6 0s2 3 4 2"/>
    <path d="M20 34c2 0 3-2 5-1s1 3 3 2"/>
    <circle cx="12" cy="36" r="6" stroke-dasharray="2 3" opacity="0.4"/>
  </symbol>

  <!-- Natural Dye Mortar -->
  <symbol id="acs-craft-naturaldye" viewBox="0 0 48 48" fill="none" stroke="currentColor" stroke-width="1.5" stroke-linecap="round" stroke-linejoin="round">
    <path d="M10 22c0-2 2-4 4-4h20c2 0 4 2 4 4v2c0 8-6 16-14 16s-14-8-14-16v-2z"/>
    <path d="M28 6l-8 14" stroke-width="2.5"/>
    <circle cx="28" cy="5" r="2" fill="currentColor"/>
    <path d="M14 26c2 2 6 3 10 3s8-1 10-3" opacity="0.5"/>
    <path d="M16 30c2 2 5 3 8 3s6-1 8-3" opacity="0.3"/>
  </symbol>

  <!-- Mirror Work -->
  <symbol id="acs-craft-mirrorwork" viewBox="0 0 48 48" fill="none" stroke="currentColor" stroke-width="1.5" stroke-linecap="round" stroke-linejoin="round">
    <circle cx="24" cy="24" r="18"/>
    <circle cx="24" cy="24" r="7" fill="currentColor" opacity="0.15"/>
    <circle cx="24" cy="24" r="3.5" fill="currentColor" opacity="0.3"/>
    <path d="M24 6v5M24 37v5M6 24h5M37 24h5"/>
    <path d="M11.3 11.3l3.5 3.5M33.2 33.2l3.5 3.5M36.7 11.3l-3.5 3.5M14.8 33.2l-3.5 3.5"/>
    <circle cx="24" cy="10" r="1.5" fill="currentColor" opacity="0.4"/>
    <circle cx="24" cy="38" r="1.5" fill="currentColor" opacity="0.4"/>
    <circle cx="10" cy="24" r="1.5" fill="currentColor" opacity="0.4"/>
    <circle cx="38" cy="24" r="1.5" fill="currentColor" opacity="0.4"/>
  </symbol>

  <!-- Kalamkari / Hand Painting -->
  <symbol id="acs-craft-kalamkari" viewBox="0 0 48 48" fill="none" stroke="currentColor" stroke-width="1.5" stroke-linecap="round" stroke-linejoin="round">
    <path d="M30 4l-22 22c-2 2-2 5 0 7l7 7c2 2 5 2 7 0l22-22"/>
    <path d="M26 8l14 14" stroke-dasharray="2 2" opacity="0.4"/>
    <circle cx="14" cy="34" r="3" fill="currentColor" opacity="0.2"/>
    <path d="M8 42l4-4"/>
    <path d="M36 8c1.5-1.5 4-1.5 5.5 0s1.5 4 0 5.5"/>
    <path d="M20 20l2 2M24 16l2 2"/>
  </symbol>
</svg>
